<?xml version="1.0" encoding="utf-8"?>
<!-- Generator: Adobe Illustrator 16.0.4, SVG Export Plug-In . SVG Version: 6.00 Build 0)  -->
<!DOCTYPE svg PUBLIC "-//W3C//DTD SVG 1.1//EN" "http://www.w3.org/Graphics/SVG/1.1/DTD/svg11.dtd">
<svg version="1.1" id="Layer_1" xmlns="http://www.w3.org/2000/svg" xmlns:xlink="http://www.w3.org/1999/xlink" x="0px" y="0px"
	 width="689.011px" height="167.998px" viewBox="0 0 689.011 167.998" enable-background="new 0 0 689.011 167.998"
	 xml:space="preserve">
<g>
	<path d="M84.999,165.998H10c-5.4,0-10-4.6-10-10V12C0,5.4,5,2,10,2s10,3.4,10,10v133.998h64.999c6.6,0,10,5,10,10
		S91.599,165.998,84.999,165.998z"/>
	<path d="M211.798,165.998c-3.8,0-7.6-2-9.2-6.8l-14.2-42.399h-48.599l-14.2,42.399c-1.6,4.8-5.4,6.8-9.2,6.8
		c-5.2,0-10.4-3.8-10.4-9.6c0-1.2,0.2-2.4,0.6-3.6L154.599,8.8c2-5.6,5.6-8.4,9.4-8.4s7.6,2.8,9.6,8.4l47.999,143.998
		c0.4,1.2,0.6,2.4,0.6,3.6C222.198,162.198,216.998,165.998,211.798,165.998z M163.999,43.6l-17.6,53.199h35.399L163.999,43.6z"/>
	<path d="M282.938,167.998c-15.2,0-35.799-6.8-44.999-20.4c-1.4-2-2-4-2-5.8c0-5.6,5.2-10.2,10.4-10.2c5,0,6.2,2.8,9.2,5.8
		c7,7.4,17.4,10.6,27.399,10.6c22.4,0,35-12.2,35-26.2c0-40.2-80.999-24.6-80.999-78.399c0-28,24.2-43.399,47.999-43.399
		c16.8,0,36.399,9,46.799,22.8c1.6,2,2.2,4.2,2.2,6.2c0,5.4-4.8,9.6-10.2,9.6c-4.8,0-6.8-2.8-9.8-5.8c-7.6-7.8-18-12.8-29-12.8
		c-16.6,0-28,9.8-28,23.399c0,34.799,80.999,21.4,80.999,78.399C337.937,151.198,311.538,167.998,282.938,167.998z"/>
	<path d="M442.596,165.998h-74.999c-5.4,0-10-4.6-10-10V12c0-5.4,4.6-10,10-10h74.999c6.6,0,10,5,10,10s-3.4,10-10,10h-64.999
		v48.399h58.999c6.6,0,10,5,10,10s-3.4,10-10,10h-58.999v55.599h64.999c6.6,0,10,5,10,10S449.196,165.998,442.596,165.998z"/>
	<path d="M560.634,166.198c-3,0-6.2-1.4-8.2-4.8l-33-51.999h-28.199v46.599c0,6.6-5,10-10,10c-5,0-10-3.4-10-10V12
		c0-5.4,4.6-10,10-10h35.6c29.6,0,53.799,24,53.799,53.599c0,21.6-12.6,40-30.8,48.6l29.4,46.399c1.2,2,1.8,3.8,1.8,5.6
		C571.033,161.798,565.833,166.198,560.634,166.198z M516.834,89.399c18.2,0,33.799-14.8,33.799-33.6S535.434,22,516.834,22h-25.6
		v67.399H516.834z"/>
	<path d="M634.012,167.998c-15.2,0-35.799-6.8-44.999-20.4c-1.4-2-2-4-2-5.8c0-5.6,5.2-10.2,10.4-10.2c5,0,6.2,2.8,9.2,5.8
		c7,7.4,17.4,10.6,27.399,10.6c22.4,0,35-12.2,35-26.2c0-40.2-80.999-24.6-80.999-78.399c0-28,24.2-43.399,47.999-43.399
		c16.8,0,36.399,9,46.799,22.8c1.6,2,2.2,4.2,2.2,6.2c0,5.4-4.8,9.6-10.2,9.6c-4.8,0-6.8-2.8-9.8-5.8c-7.6-7.8-18-12.8-29-12.8
		c-16.6,0-28,9.8-28,23.399c0,34.799,80.999,21.4,80.999,78.399C689.011,151.198,662.611,167.998,634.012,167.998z"/>
</g>
</svg>
